<?xml version="1.0" encoding="UTF-8"?>
<!DOCTYPE svg PUBLIC "-//W3C//DTD SVG 1.1//EN" "http://www.w3.org/Graphics/SVG/1.1/DTD/svg11.dtd">
<!-- Creator: CorelDRAW X5 -->
<svg xmlns="http://www.w3.org/2000/svg" xml:space="preserve" width="210mm" height="68.699mm" style="shape-rendering:geometricPrecision; text-rendering:geometricPrecision; image-rendering:optimizeQuality; fill-rule:evenodd; clip-rule:evenodd"
viewBox="0 0 21000 6870"
 xmlns:xlink="http://www.w3.org/1999/xlink">
 <defs>
  <style type="text/css">
   <![CDATA[
    .fil5 {fill:none}
    .fil4 {fill:#E7B706}
    .fil2 {fill:#FDE300}
    .fil6 {fill:#543325}
    .fil3 {fill:#6D3F28}
    .fil1 {fill:#332C2B;fill-rule:nonzero}
    .fil0 {fill:#BF2747;fill-rule:nonzero}
    .fil7 {fill:#E7B706;fill-opacity:0.501961}
   ]]>
  </style>
   <clipPath id="id0">
    <path d="M4551 299c0,0 -263,-222 -487,-273 -224,-51 -391,-10 -391,-10l-2142 3354c0,0 -78,85 -103,162 -25,77 -90,152 -182,166 -92,14 -165,196 -166,278 -1,82 -81,111 -172,136 -92,25 -602,179 -751,765 -149,587 69,1370 69,1370l-2 121c0,0 -241,255 -223,372 17,118 100,132 100,132 0,0 -61,-101 77,-291 138,-190 1278,-973 1552,-1534 274,-561 208,-593 437,-972 230,-379 2385,-3773 2385,-3773z"/>
   </clipPath>
 </defs>
 <g id="Layer_x0020_1">
  <metadata id="CorelCorpID_0Corel-Layer"/>
  <path class="fil0" d="M11498 2507c6,67 -2,135 -22,206 -21,71 -51,137 -90,198 -40,61 -87,113 -142,153 -55,42 -110,65 -167,71 -81,8 -147,-13 -199,-64 -51,-50 -82,-121 -90,-215 -7,-81 14,-165 63,-251 49,-84 113,-155 192,-209 80,-54 159,-85 239,-93 59,-6 109,10 148,47 40,37 63,89 69,156zm-6156 -877c0,289 -103,533 -311,731 -207,199 -465,359 -774,480 -310,122 -641,220 -998,295 -356,74 -641,134 -857,178l-127 120c295,43 526,78 692,106 166,26 370,76 614,149 244,73 449,168 613,284 165,115 247,254 247,413 0,91 -28,187 -86,293 -57,106 -143,215 -256,328 -14,14 -28,27 -42,41 192,-94 371,-198 522,-293 -3,-16 -6,-32 -9,-48 0,-138 4,-239 13,-303 48,-161 166,-326 354,-498 188,-171 413,-330 674,-477 261,-147 514,-262 757,-347 244,-84 444,-126 602,-126 157,0 283,82 374,247 17,35 26,58 26,66 0,34 -13,63 -40,88 -26,24 -58,43 -96,58 -38,15 -70,26 -98,35 122,57 183,145 183,260 0,60 -23,124 -67,190 -44,67 -116,165 -218,296 -102,130 -175,232 -219,306 -44,75 -66,152 -66,232 0,63 19,112 60,148 40,36 88,56 147,56 57,0 112,-11 164,-34 53,-22 122,-64 207,-126 316,-233 673,-526 933,-822 85,-95 190,-247 316,-456l-191 8c-86,4 -224,26 -413,69 121,-222 205,-374 255,-454 49,-81 107,-149 174,-207 66,-57 152,-102 257,-136 104,-32 244,-59 417,-79 146,-254 259,-420 340,-494 80,-76 186,-116 317,-122 135,-6 204,36 208,125 2,43 -34,126 -109,246 -74,121 -112,184 -114,191 86,-4 212,4 379,23l-129 247c-92,195 -159,323 -199,382 -40,60 -108,106 -206,139 -97,34 -249,55 -456,64 -181,273 -319,518 -412,738 -95,220 -140,390 -135,511 7,194 79,289 215,284 61,-3 138,-28 230,-76 93,-47 189,-106 291,-177 100,-70 211,-153 330,-248 49,-39 90,-72 123,-98 17,-66 37,-133 62,-202 91,-253 221,-470 392,-650 169,-179 355,-279 557,-299 69,-7 127,5 175,36 48,32 74,74 79,127 7,81 -35,194 -125,339 -90,144 -201,295 -331,453 -131,159 -237,288 -317,386 -28,61 -39,116 -35,163 9,99 47,172 116,222 69,50 160,68 273,57 114,-11 233,-59 359,-146 123,-83 295,-228 514,-433 23,-122 60,-241 113,-357 125,-261 268,-517 428,-770 161,-252 327,-487 498,-703 172,-216 355,-423 550,-622 195,-199 405,-395 632,-589 108,-77 193,-120 255,-125 39,-3 74,11 105,40 31,29 48,63 51,100 8,102 -79,291 -261,568 -182,277 -386,558 -611,842 -225,283 -515,635 -867,1053 -352,418 -540,643 -563,672l1 167c411,-428 786,-804 1127,-1125 341,-322 591,-490 749,-503 95,-8 180,28 255,109 76,81 118,187 128,317 11,141 -26,277 -109,409 -83,134 -220,271 -409,415 -126,89 -209,148 -248,175 -39,27 -78,55 -118,84 -40,28 -124,87 -250,177 76,101 142,169 197,203 56,35 120,49 194,43 86,-7 173,-34 262,-79 88,-45 178,-102 268,-172 91,-71 174,-139 251,-206 76,-67 160,-139 253,-218 -6,59 -4,148 5,269 -128,135 -265,277 -410,424 -145,147 -290,275 -434,383 -145,108 -283,168 -416,179 -94,8 -183,-10 -267,-55 -85,-45 -165,-105 -240,-181 -75,-77 -145,-156 -208,-239 -64,-83 -124,-164 -183,-242 -72,89 -124,162 -159,217 -35,55 -74,131 -118,228 -56,134 -120,204 -190,210 -140,12 -233,-214 -281,-677 -2,-25 -3,-50 -4,-74 -86,88 -186,189 -301,304 -145,146 -288,272 -429,376 -140,104 -271,163 -390,174 -160,16 -294,-41 -403,-170 -107,-129 -180,-321 -213,-578 -4,-51 -6,-103 -5,-155 -65,59 -134,122 -208,189 -131,120 -266,233 -403,338 -138,105 -272,191 -403,259 -131,68 -257,104 -377,110 -116,5 -210,-31 -282,-109 -70,-77 -108,-187 -113,-328 -8,-219 69,-508 231,-865 -270,251 -513,482 -792,729 -169,149 -337,278 -501,387 -165,109 -306,164 -421,164 -73,0 -137,-36 -190,-109 -54,-72 -81,-149 -81,-231 0,-93 20,-206 61,-336 41,-130 103,-282 185,-459 -99,89 -240,215 -423,379 -183,163 -353,303 -510,419 -158,115 -278,173 -359,173 -86,0 -168,-47 -246,-140 -77,-93 -142,-202 -195,-323l-5 -11c-173,100 -443,245 -825,424 -305,142 -657,222 -968,266 -37,12 -76,25 -115,37 -186,58 -362,101 -529,128 -165,29 -334,42 -506,42 -362,0 -657,-74 -883,-225 -226,-150 -340,-344 -340,-582 0,-115 27,-237 81,-362 54,-127 118,-247 192,-362 75,-114 168,-243 278,-386 111,-143 190,-243 236,-302 -195,-7 -344,-35 -448,-82 -104,-47 -157,-109 -157,-185 0,-78 48,-143 143,-197 95,-53 212,-94 351,-124 138,-29 271,-51 396,-66 127,-14 224,-25 292,-32 81,-84 186,-199 318,-341 132,-143 264,-269 397,-381 132,-112 266,-200 402,-266 135,-65 274,-98 419,-98 46,0 69,15 69,43 0,43 -56,135 -169,274 -113,139 -285,346 -518,619 347,-46 612,-92 795,-139 182,-47 380,-119 596,-216 166,-89 305,-185 414,-287 109,-102 163,-191 163,-266 0,-104 -57,-185 -174,-242 -116,-57 -278,-86 -485,-86 -386,0 -761,40 -1129,118 -367,79 -761,194 -1179,344 55,43 82,79 82,106 0,51 -32,92 -96,120 -63,29 -169,58 -315,87 -147,30 -263,58 -347,88 -43,14 -111,41 -203,79 -91,38 -176,71 -251,94 -75,25 -140,37 -192,37 -132,0 -199,-65 -199,-194 0,-46 8,-86 23,-119 16,-35 61,-109 135,-226 147,-236 261,-403 345,-504 83,-101 186,-185 307,-253 122,-68 298,-138 529,-211 911,-289 1703,-433 2376,-433 279,0 521,36 723,108 203,71 360,173 471,303 113,132 169,283 169,456zm1411 1982c-244,69 -478,153 -701,249 -224,97 -437,214 -641,352 -137,89 -228,174 -275,256 -47,83 -71,197 -71,344 0,100 34,150 104,150 96,0 251,-84 465,-252 213,-169 429,-363 650,-584 221,-221 378,-393 470,-516zm6744 244c-3,-43 -24,-63 -63,-60 -74,6 -171,53 -290,140 -118,87 -237,188 -356,306 -119,117 -210,215 -275,295 42,11 79,25 113,41 32,16 75,43 126,76 219,-161 399,-317 540,-470 141,-151 209,-262 204,-329zm-9854 441c0,-86 -64,-159 -192,-221 -128,-62 -277,-109 -444,-143 -169,-35 -373,-66 -613,-93 -240,-29 -379,-45 -413,-50 -32,36 -109,120 -230,253 -122,132 -219,250 -292,351 -74,102 -110,182 -110,243 0,127 69,230 208,312 138,81 318,122 538,122 149,0 349,-38 600,-114 252,-77 474,-175 664,-293 190,-119 285,-242 285,-367z"/>
  <path class="fil1" d="M3155 827l-663 1039c162,-45 319,-84 472,-117 242,-51 486,-86 735,-104 208,-328 401,-632 550,-868 -86,-8 -176,-12 -271,-12 -257,0 -531,21 -823,63zm-1406 2201l-218 342c0,0 -78,85 -103,162 -25,77 -90,152 -182,166 -1,0 -3,1 -4,1 16,1 32,2 48,2 -42,54 -112,143 -209,268 0,2 0,4 0,6 -1,55 -36,86 -87,108 -84,111 -156,213 -216,306 -74,115 -138,236 -192,362 -54,125 -81,247 -81,362 0,238 114,432 340,582 67,45 141,83 220,114 283,-254 551,-529 666,-765l8 -17c-67,-19 -128,-45 -182,-77 -138,-82 -208,-185 -208,-312 0,-61 36,-142 110,-243 73,-102 170,-220 292,-351 121,-133 198,-217 230,-253 30,4 143,18 336,41 62,-99 138,-220 225,-358 -82,-12 -170,-25 -265,-39l127 -120c82,-16 173,-35 275,-56 82,-130 170,-269 262,-414 -49,7 -101,14 -154,21 233,-273 406,-480 518,-619 32,-40 60,-76 83,-108l65 -102c14,-27 21,-49 21,-64 0,-29 -23,-43 -69,-43 -144,0 -284,34 -419,98 -136,66 -270,154 -402,266 -134,112 -265,238 -397,381 -131,143 -237,257 -318,341 -32,4 -71,8 -117,13z"/>
  <path class="fil1" d="M996 4248c226,74 284,391 130,708 -125,257 -352,434 -554,452 -46,-89 -69,-187 -69,-294 0,-115 27,-237 81,-362 54,-127 118,-247 192,-362 32,-49 68,-101 107,-156 39,-1 77,4 113,16z"/>
  <path class="fil1" d="M1618 4113c0,0 -273,200 -286,222 -13,22 -18,70 7,73 19,3 138,-71 206,-128 18,-23 37,-46 57,-70 17,-45 15,-97 15,-97z"/>
  <path class="fil2" d="M4551 299c0,0 -263,-222 -487,-273 -224,-51 -391,-10 -391,-10l-2142 3354c0,0 -78,85 -103,162 -25,77 -90,152 -182,166 -92,14 -165,196 -166,278 -1,82 -81,111 -172,136 -92,25 -602,179 -751,765 -149,587 69,1370 69,1370l-2 121c0,0 -241,255 -223,372 17,118 100,132 100,132 0,0 -61,-101 77,-291 138,-190 1278,-973 1552,-1534 274,-561 208,-593 437,-972 230,-379 2385,-3773 2385,-3773z"/>
  <g style="clip-path:url(#id0)">
   <g id="_393990160">
    <path id="1" class="fil3" d="M730 5423c-37,40 1,228 -39,419 -40,191 -131,465 -131,465 0,0 792,-750 963,-1088 171,-338 331,-762 334,-1020 3,-258 -149,-345 -257,-353 -108,-9 -208,8 -208,8 0,0 349,59 355,214 6,155 -297,446 -377,475 -79,29 -109,95 -110,125 0,30 -46,316 -198,490 -152,174 -332,265 -332,265z"/>
    <path class="fil4" d="M1779 3604c-120,-30 -179,7 -179,7 0,0 72,-128 172,-84 99,43 165,101 182,53 15,-41 1640,-2629 2149,-3384 14,-20 27,-39 38,-57 64,-94 -157,-210 111,-148 56,13 183,42 152,117 -30,74 -1990,3167 -1990,3167 0,0 22,-218 -24,-195 -46,23 -314,473 -353,565 -39,92 1,232 -49,239 -126,16 -35,-236 -211,-280z"/>
    <path class="fil3" d="M2142 4445c0,0 -146,-304 -58,-609 87,-305 292,-674 292,-674 0,0 -155,380 -84,373 71,-7 2032,-3199 2032,-3199 0,0 39,-77 19,-138 -21,-61 -118,-206 -118,-206l631 126 -2239 4355 -474 -29z"/>
   </g>
  </g>
  <path class="fil5" d="M4551 299c0,0 -263,-222 -487,-273 -224,-51 -391,-10 -391,-10l-2142 3354c0,0 -78,85 -103,162 -25,77 -90,152 -182,166 -92,14 -165,196 -166,278 -1,82 -81,111 -172,136 -92,25 -602,179 -751,765 -149,587 69,1370 69,1370l-2 121c0,0 -241,255 -223,372 17,118 100,132 100,132 0,0 -61,-101 77,-291 138,-190 1278,-973 1552,-1534 274,-561 208,-593 437,-972 230,-379 2385,-3773 2385,-3773z"/>
  <path class="fil6" d="M996 4248c226,75 284,391 130,708 -154,316 -463,512 -689,438 -226,-75 -284,-391 -130,-708 154,-316 463,-512 689,-438z"/>
  <path class="fil7" d="M559 5546c0,0 -52,471 -6,426 46,-45 99,-236 96,-344 -3,-107 -90,-82 -90,-82zm1059 -1433c0,0 -273,200 -286,222 -13,22 -18,70 7,73 25,3 222,-125 252,-173 30,-48 27,-121 27,-121z"/>
  <path class="fil0" d="M4283 780l-423 855c-304,13 -603,51 -896,113 -203,44 -415,99 -634,164l403 -1012c453,-91 868,-136 1246,-136 107,0 209,5 305,16z"/>
  <path class="fil0" d="M19362 3257c-5,51 -20,100 -45,150 -26,50 -58,94 -97,134 -39,40 -83,71 -131,93 -48,23 -94,32 -139,28 -63,-6 -112,-32 -145,-77 -33,-45 -46,-103 -40,-173 6,-62 33,-121 83,-177 49,-56 108,-99 176,-127 69,-29 134,-40 196,-34 46,4 82,24 108,57 26,33 37,76 32,126zm1638 1623c-33,26 -124,107 -273,241 -148,133 -276,237 -384,309 -108,74 -208,112 -303,116 -94,4 -174,-31 -240,-103 -66,-73 -102,-163 -106,-272 -4,-102 15,-204 57,-307 41,-103 92,-196 151,-279 59,-84 137,-185 230,-305l-558 145c-97,113 -174,197 -232,255 -59,59 -158,151 -298,279l0 -4c-88,60 -193,130 -318,212 -132,87 -259,160 -382,217 -122,57 -231,81 -324,72 -125,-12 -221,-74 -287,-186 -61,-105 -91,-248 -87,-428 -90,77 -187,159 -290,248 -148,127 -296,236 -441,329 -145,93 -269,139 -370,139 -64,0 -120,-31 -167,-93 -47,-61 -71,-127 -71,-197 0,-79 18,-175 54,-286 36,-110 91,-240 163,-390 -87,76 -211,183 -372,322 -161,138 -310,258 -448,356 -139,98 -244,147 -316,147 -76,0 -148,-40 -217,-119 -68,-79 -125,-171 -171,-275 -46,-105 -76,-198 -89,-279 0,-117 4,-203 11,-258 43,-137 146,-277 311,-423 165,-145 363,-281 593,-406 230,-125 452,-223 666,-295 215,-72 391,-107 530,-107 138,0 249,70 329,210 15,30 23,49 23,56 0,29 -11,53 -35,75 -23,20 -51,37 -84,49 -33,13 -61,22 -86,30 107,48 161,123 161,221 0,51 -20,106 -59,162 -39,57 -102,140 -192,252 -90,110 -154,198 -193,260 -39,64 -58,129 -58,197 0,53 17,95 53,126 35,31 78,47 130,47 50,0 98,-10 144,-29 46,-18 107,-54 182,-107 69,-49 196,-144 380,-285 29,-75 66,-150 111,-227 104,-175 235,-317 390,-427 155,-109 312,-156 470,-141 54,5 97,23 130,53 32,31 47,66 44,106 -6,62 -54,139 -143,234 -89,94 -195,190 -317,288 -123,99 -222,179 -297,241 -30,42 -46,80 -49,116 -7,75 13,135 59,183 46,47 114,75 202,83 89,9 188,-10 297,-56 219,-90 430,-210 593,-385 26,-28 63,-74 111,-137 -50,-3 -86,-14 -104,-32 -18,-19 -29,-54 -31,-105 -4,-92 31,-198 102,-318 72,-119 157,-223 253,-311 96,-87 175,-132 237,-135 24,-1 47,10 70,32 22,22 34,48 35,77 1,28 -8,66 -27,114l608 -108c12,0 27,-3 44,-7 18,-4 27,-6 27,-6 56,-2 107,28 156,90 48,62 74,135 77,219 2,56 -17,110 -57,161 -41,51 -111,127 -209,230 -98,102 -172,192 -223,273 -50,81 -73,164 -70,250 4,97 53,143 148,140 48,-2 99,-15 154,-39 56,-24 117,-59 183,-103 66,-45 122,-85 168,-123 46,-37 91,-71 133,-103l9 228zm-4171 -1064c-215,59 -420,130 -617,212 -197,82 -384,182 -564,299 -120,76 -200,148 -242,218 -42,71 -62,167 -62,292 0,85 30,128 92,128 84,0 220,-72 408,-214 187,-143 377,-309 571,-497 194,-188 332,-334 413,-439z"/>
 </g>
</svg>
