<?xml version="1.0" encoding="UTF-8"?>
<!DOCTYPE svg PUBLIC "-//W3C//DTD SVG 1.1//EN" "http://www.w3.org/Graphics/SVG/1.1/DTD/svg11.dtd">
<!-- Creator: CorelDRAW 2019 (64-Bit) -->
<svg xmlns="http://www.w3.org/2000/svg" xml:space="preserve" width="4124px" height="1080px" version="1.1" style="shape-rendering:geometricPrecision; text-rendering:geometricPrecision; image-rendering:optimizeQuality; fill-rule:evenodd; clip-rule:evenodd"
viewBox="0 0 4124 1080.11"
 xmlns:xlink="http://www.w3.org/1999/xlink"
 xmlns:xodm="http://www.corel.com/coreldraw/odm/2003">
 <defs>
  <style type="text/css">
   <![CDATA[
    .fil0 {fill:#FB0102;fill-rule:nonzero}
   ]]>
  </style>
 </defs>
 <g id="Layer_x0020_1">
  <metadata id="CorelCorpID_0Corel-Layer"/>
  <path class="fil0" d="M127.28 307.44c-38.49,109.37 -76.83,218.74 -115.32,328.11 -2.5,9.23 -5.16,18.62 -7.03,27.54 -2.04,8.92 -3.45,17.68 -4.23,26.6 -0.78,9.07 -0.94,18.45 -0.31,27.22 0.62,8.76 2.19,16.74 5.32,26.28 3.12,9.55 7.66,20.66 13.45,30.36 5.95,9.7 13.3,17.99 21.91,24.72 8.6,6.88 18.46,12.21 30.19,16.43 11.74,4.22 25.51,7.04 37.08,8.61 11.58,1.4 20.82,1.4 30.05,1.4 88.4,0 176.8,0 265.21,0 2.18,-0.15 4.38,-0.31 6.57,-0.93 2.03,-0.63 4.06,-1.89 6.25,-3.29 2.19,-1.41 4.39,-3.13 6.26,-5.32 2.04,-2.19 3.76,-5.01 5.17,-7.83 1.4,-2.81 2.66,-5.78 3.75,-8.76 9.55,-29.1 18.94,-58.2 25.82,-79.8 6.88,-21.58 11.26,-35.51 13.77,-43.65 2.5,-8.13 2.97,-10.32 3.13,-12.36 0.15,-2.03 0.15,-3.75 -0.16,-5.48 -0.31,-1.71 -1.1,-3.44 -2.03,-4.85 -1.1,-1.4 -2.51,-2.66 -3.92,-3.43 -1.4,-0.79 -2.81,-1.26 -4.53,-1.57 -1.57,-0.32 -3.45,-0.32 -5.17,-0.47 -64.46,0 -128.93,0 -193.39,0 -2.97,0 -6.1,0 -8.76,-0.63 -2.81,-0.62 -5.32,-2.03 -7.51,-3.44 -2.35,-1.41 -4.22,-2.97 -5.94,-4.85 -1.73,-1.87 -2.98,-4.22 -4.07,-7.19 -0.94,-2.98 -1.72,-6.42 -1.88,-10.18 -0.16,-3.6 0.16,-7.35 1.09,-11.73 0.94,-4.54 2.51,-9.7 3.92,-14.86 32.23,-94.67 64.46,-189.33 96.54,-284.14 0.47,-1.73 0.78,-3.45 0.78,-5.48 -0.16,-2.03 -0.63,-4.38 -1.57,-6.26 -0.94,-1.88 -2.19,-3.28 -3.44,-4.38 -1.25,-1.09 -2.66,-1.56 -4.23,-1.88 -1.56,-0.31 -3.44,-0.31 -5.32,-0.47 -58.35,0 -116.56,0 -174.92,0 -1.41,0.16 -2.82,0.16 -4.38,0.47 -1.41,0.32 -2.98,0.79 -4.38,1.25 -1.41,0.63 -2.82,1.41 -4.23,2.2 -1.25,0.77 -2.5,1.72 -3.75,2.96 -1.25,1.1 -2.5,2.51 -3.45,4.08 -0.93,1.56 -1.56,3.28 -2.34,5z"/>
  <path class="fil0" d="M618.11 440.44c-1.57,0.15 -2.98,0.15 -4.69,0.62 -1.57,0.47 -3.29,1.1 -4.7,1.88 -1.41,0.78 -2.5,1.41 -3.44,2.35 -1.1,0.78 -2.04,1.87 -2.82,2.97 -0.78,1.09 -1.41,2.35 -2.03,3.6 -36.46,118.13 -72.92,236.26 -109.37,354.39 -0.32,1.25 -0.48,2.5 -0.63,3.6 0,1.25 0.15,2.35 0.47,3.44 0.31,1.1 0.94,2.19 1.88,3.13 0.94,0.94 2.19,1.88 3.28,2.5 1.1,0.63 2.19,0.94 3.13,1.1 0.95,0.16 1.88,0.31 2.82,0.47 55.7,0 111.56,0 167.26,0 1.56,0 3.13,0 4.85,-0.47 1.57,-0.47 3.13,-1.25 4.54,-2.03 1.41,-0.79 2.5,-1.57 3.44,-3.13 1.09,-1.57 2.04,-4.07 2.98,-6.58 37.39,-118.12 74.78,-236.26 112.18,-354.55 0.31,-1.09 0.47,-2.19 0.63,-3.28 0.15,-1.1 0.15,-2.35 0,-3.44 -0.16,-1.09 -0.48,-1.88 -1.1,-2.66 -0.47,-0.78 -1.25,-1.57 -2.04,-2.19 -0.78,-0.63 -1.72,-0.94 -2.5,-1.25 -0.78,-0.16 -1.72,-0.32 -2.5,-0.32 -57.27,0 -114.53,0 -171.64,0l0 -0.15z"/>
  <path class="fil0" d="M1293.1 618.18c48.02,-166.64 -192.93,-276.47 -413.85,-118.29 -106.25,76.04 -143.17,225.47 -32.39,293.06 56.17,34.27 112.65,42.25 190.25,29.89 98.74,-15.65 223.75,-92.94 255.99,-204.82l0 0.16zm-174.15 16.11c-33.48,70.73 -190.26,79.33 -156.62,-14.86 10.17,-28.48 48.35,-54.45 88.09,-57.73 44.12,-3.76 91.53,24.25 68.69,72.75l-0.16 -0.16z"/>
  <path class="fil0" d="M725.17 253.27c62.24,-9.86 114.76,15.45 117.29,56.52 2.55,41.08 -45.85,82.38 -108.09,92.23 -62.23,9.86 -114.75,-15.45 -117.29,-56.53 -2.54,-41.07 45.85,-82.36 108.09,-92.22z"/>
  <path class="fil0" d="M1399.49 438.4c-38.02,121.26 -76.04,242.68 -114.06,363.94 -0.47,2.35 -0.94,4.54 -0.78,6.57 0,2.03 0.62,3.91 1.4,5.48 0.78,1.56 1.87,2.66 3.13,3.6 1.25,0.93 2.5,1.56 3.76,1.87 1.09,0.32 2.03,0.32 2.97,0.32 55.39,0 110.62,0 166,0 1.57,0 3.29,0 5.02,-0.32 1.72,-0.31 3.75,-0.94 5.32,-1.56 1.56,-0.63 2.66,-1.25 3.75,-2.19 1.1,-0.94 2.03,-2.19 2.82,-3.44 0.78,-1.26 1.25,-2.51 1.87,-3.76 20.97,-71.04 41.78,-142.07 62.74,-213.11 1.41,-3.75 2.83,-7.35 5.32,-9.85 2.51,-2.35 6.26,-3.29 11.58,-4.38 5.32,-0.94 12.21,-1.88 21.28,-2.51 9.08,-0.62 20.34,-1.09 28.94,-1.25 8.61,-0.31 14.72,-0.31 19.25,0.31 4.54,0.63 7.52,2.04 9.55,3.45 2.19,1.4 3.44,2.82 4.84,5.01 1.26,2.03 2.51,4.85 3.13,9.07 0.63,4.22 0.63,9.7 0,14.55 -0.62,4.69 -2.02,8.76 -4.06,14.71 -2.03,5.95 -4.54,14.08 -14.08,44.28 -9.55,30.19 -26.13,82.61 -42.56,135.03 -0.32,1.09 -0.48,2.19 -0.63,3.44 -0.15,1.25 -0.15,2.66 0,3.91 0.15,1.25 0.63,2.5 1.42,3.76 0.78,1.25 1.71,2.34 2.96,3.13 1.26,0.78 2.66,1.25 3.91,1.4 1.26,0.16 2.2,0.32 3.13,0.32 56.81,0 113.45,0 170.24,0 2.04,0 4.06,0 5.64,-0.47 1.71,-0.47 3.12,-1.25 4.38,-2.19 1.24,-0.94 2.34,-2.04 3.27,-3.13 0.79,-1.1 1.42,-2.04 1.89,-2.98 19.56,-64.46 39.26,-128.92 58.82,-193.39 1.25,-4.53 2.67,-9.07 4.07,-16.42 1.41,-7.36 2.67,-17.69 3.45,-25.98 0.62,-8.29 0.62,-14.71 0,-22.69 -0.63,-7.97 -1.89,-17.52 -3.29,-25.03 -1.4,-7.51 -2.82,-12.83 -4.85,-17.68 -2.04,-4.7 -4.69,-8.92 -8.14,-14.24 -3.28,-5.47 -7.35,-12.2 -12.04,-18.15 -4.7,-6.1 -10.17,-11.42 -17.06,-16.89 -6.89,-5.33 -15.02,-10.8 -22.37,-14.87 -7.35,-4.07 -14.09,-6.73 -20.81,-9.39 -6.73,-2.66 -13.62,-5.32 -21.91,-7.36 -8.29,-2.03 -18.15,-3.43 -33.17,-4.06 -15.01,-0.63 -35.04,-0.63 -51.79,-0.16 -16.73,0.63 -29.88,1.72 -41.77,3.29 -11.73,1.56 -22.22,3.59 -31.77,5.79 -9.69,2.19 -18.45,4.54 -27.69,7.04 -9.08,2.5 -18.46,5 -28.17,6.41 -9.7,1.26 -19.86,1.26 -27.22,0.63 -7.2,-0.63 -11.58,-1.72 -16.74,-3.13 -5.16,-1.25 -11.27,-2.66 -16.58,-3.75 -5.48,-1.26 -10.18,-2.2 -16.27,-2.82 -5.95,-0.63 -13.15,-0.94 -21.44,-0.94 -8.29,0 -17.68,0.47 -26.92,0.94l0.32 -0.16z"/>
  <path class="fil0" d="M3560.73 431.67c-1.09,0 -2.03,0.16 -3.13,0.31 -1.1,0.32 -2.03,0.63 -2.97,1.26 -0.95,0.62 -1.73,1.41 -2.5,2.19 -0.63,0.78 -1.26,1.56 -1.72,2.5 -0.48,0.94 -0.95,2.04 -1.26,2.98 -37.55,122.19 -74.95,244.39 -112.5,366.59 -0.16,1.1 -0.47,2.2 -0.47,3.44 0,1.26 0.31,2.35 0.79,3.45 0.46,1.09 1.24,2.03 2.19,2.66 0.94,0.78 2.34,1.25 3.44,1.56 1.25,0.31 2.34,0.31 3.44,0.31 58.2,0 116.56,0 174.78,0 1.56,-0.15 3.12,-0.15 4.53,-0.62 1.41,-0.47 2.5,-1.25 3.6,-2.19 0.94,-0.94 1.72,-2.19 2.34,-3.29 0.47,-1.09 0.78,-2.03 1.1,-2.97 38.18,-122.98 76.36,-245.96 114.53,-368.94 0.16,-0.79 0.31,-1.57 0.31,-2.35 0,-0.78 0,-1.57 -0.31,-2.5 -0.31,-0.79 -0.62,-1.73 -1.25,-2.35 -0.62,-0.63 -1.41,-1.25 -2.35,-1.57 -0.93,-0.31 -1.87,-0.47 -2.98,-0.62 -0.93,-0.16 -2.02,-0.16 -2.96,-0.16 -59,0 -117.98,0 -176.97,0l0.32 0.31z"/>
  <path class="fil0" d="M3671.58 247.13c62.24,-9.86 114.75,15.45 117.29,56.53 2.54,41.08 -45.85,82.37 -108.09,92.22 -62.24,9.86 -114.75,-15.45 -117.29,-56.52 -2.54,-41.08 45.86,-82.37 108.09,-92.23z"/>
  <path class="fil0" d="M3241.07 603.79c-12.83,43.02 -38.01,125.01 -63.05,207.15 -0.16,0.63 -0.16,1.26 -0.16,2.2 0.16,0.93 0.47,2.03 1.1,2.97 0.62,0.94 1.71,1.72 2.66,2.19 0.94,0.47 1.87,0.62 2.5,0.62 0.62,0.16 1.25,0.16 1.73,0.16 58.2,0 116.4,0 174.61,0 0.93,-0.16 2.03,-0.16 2.96,-0.31 0.95,-0.16 1.73,-0.47 2.67,-0.78 0.93,-0.32 1.87,-0.79 2.97,-1.41 0.94,-0.63 2.03,-1.57 2.81,-2.51 0.79,-1.09 1.57,-2.18 2.2,-3.44 38.64,-123.6 77.14,-247.06 115.78,-370.66 0.47,-1.57 0.78,-3.14 0.62,-4.54 -0.31,-1.41 -1.09,-2.66 -2.02,-3.29 -0.95,-0.62 -1.89,-0.62 -2.82,-0.62 -21.28,0 -42.56,0 -56.8,-0.63 -14.08,-0.62 -21.12,-1.72 -27.69,-3.13 -6.58,-1.4 -12.53,-2.82 -18.78,-4.85 -6.27,-2.03 -12.83,-4.53 -18.63,-6.57 -5.78,-2.04 -10.63,-3.44 -18.45,-5.48 -7.83,-2.03 -18.46,-4.69 -27.54,-6.72 -9.08,-2.04 -16.59,-3.45 -27.07,-4.85 -10.48,-1.41 -23.78,-2.66 -36.3,-3.45 -12.52,-0.62 -24.1,-0.62 -36.3,0 -12.21,0.63 -25.19,2.04 -35.2,3.6 -10.02,1.41 -17.21,2.97 -24.26,5.01 -7.04,2.03 -14.07,4.38 -20.96,7.04 -6.89,2.66 -13.76,5.32 -20.81,8.6 -7.04,3.29 -14.4,7.04 -22.37,11.43 -7.98,4.38 -16.6,9.39 -25.36,15.64 -8.76,6.27 -17.83,13.93 -26.9,21.91 -9.07,7.98 -18.16,16.43 -26.76,25.5 -8.77,9.08 -17.21,18.93 -25.19,30.67 -7.99,11.73 -15.64,25.19 -22.22,37.55 -6.57,12.36 -12.05,23.47 -16.58,33.64 -4.54,10.33 -8.3,19.72 -12.05,32.7 -3.76,13.14 -7.36,29.89 -9.07,43.97 -1.73,14.08 -1.73,25.66 -1.1,34.74 0.63,9.07 2.03,15.8 3.44,21.9 1.41,6.1 2.66,11.42 4.06,16.11 1.42,4.7 2.67,8.92 4.38,12.84 1.58,4.06 3.6,7.98 5.96,11.88 2.34,4.08 5,8.14 7.98,12.21 3.13,4.07 6.56,8.14 9.7,11.43 3.13,3.43 5.79,6.1 9.22,8.76 3.45,2.65 7.51,5.31 12.21,7.97 4.7,2.67 10.18,5.32 16.43,7.36 6.26,2.03 13.31,3.44 20.49,4.22 7.05,0.79 14.25,0.79 20.97,0.79 6.73,0 12.99,0 18.62,-0.63 5.63,-0.63 10.64,-2.03 16.59,-4.07 5.94,-2.03 12.67,-4.69 18.61,-7.35 6.11,-2.66 11.43,-5.48 17.54,-8.92 5.94,-3.44 12.67,-7.51 18.77,-11.58 6.11,-4.06 11.42,-8.14 16.74,-12.83 5.31,-4.69 10.64,-10.02 14.56,-14.55 4.06,-4.69 6.72,-8.61 9.53,-12.68 2.67,-4.06 5.48,-8.29 8.14,-12.98 2.67,-4.69 5.48,-9.86 7.51,-15.18 2.03,-5.32 3.29,-10.8 4.7,-16.12 -2.67,1.42 -5.32,2.82 -8.92,4.23 -3.6,1.41 -7.98,2.66 -14.56,4.7 -6.56,2.03 -15.17,4.69 -22.99,5.94 -7.83,1.25 -14.56,1.25 -20.03,0.62 -5.48,-0.62 -9.55,-1.87 -13.78,-3.91 -4.22,-2.03 -8.6,-4.53 -12.19,-7.97 -3.76,-3.45 -6.73,-7.51 -8.77,-11.74 -2.03,-4.23 -2.97,-8.6 -3.44,-15.18 -0.48,-6.57 -0.48,-15.17 0.32,-22.53 0.62,-7.35 2.02,-13.3 3.27,-19.55 1.42,-6.27 2.82,-12.68 4.86,-19.25 2.03,-6.73 4.69,-13.61 7.98,-21.12 3.28,-7.51 7.35,-15.65 12.04,-23.63 4.71,-8.14 10.02,-16.27 17.53,-25.03 7.35,-8.77 16.9,-18.16 25.35,-24.88 8.45,-6.73 15.65,-10.8 22.68,-13.46 7.05,-2.66 13.78,-4.07 20.19,-4.85 6.42,-0.62 12.51,-0.62 18.47,0.16 5.78,0.78 11.25,2.19 15.32,4.22 4.07,2.04 6.58,4.54 8.92,7.2 2.19,2.66 4.07,5.32 5.33,8.76 1.4,3.44 2.34,7.51 2.65,11.58 0.48,4.07 0.31,8.14 0,12.2 -0.47,4.07 -1.09,8.14 -14.08,51.17l-0.47 -0.31z"/>
  <path class="fil0" d="M3809.19 431.67c-38.8,124.55 -77.45,249.1 -116.25,373.8 -0.31,1.41 -0.62,2.97 -0.62,4.54 0,1.56 0.47,3.28 1.4,4.69 0.78,1.41 2.04,2.35 3.6,2.97 1.56,0.63 3.6,1.1 5.01,1.25 1.41,0.16 2.35,0.16 3.29,0.16 54.13,0 108.42,0 162.56,0 1.41,0 2.66,0 4.69,-0.47 1.88,-0.47 4.54,-1.25 6.89,-2.5 2.35,-1.25 4.69,-3.13 6.26,-5.32 1.56,-2.19 2.5,-4.7 3.44,-7.36 17.22,-59.61 34.42,-119.38 51.64,-178.99 1.71,-5.01 3.44,-10.02 5.47,-14.24 2.04,-4.23 4.53,-7.51 7.2,-10.48 2.66,-2.82 5.47,-5.32 8.13,-7.36 2.67,-2.19 5.47,-4.07 8.3,-5.63 2.97,-1.72 6.09,-3.13 9.69,-4.38 3.6,-1.25 7.83,-2.5 12.05,-3.29 4.07,-0.78 8.14,-1.41 12.05,-1.41 3.91,0 7.51,0.32 10.65,0.79 3.12,0.62 5.47,1.25 8.6,2.34 2.97,1.1 6.72,2.35 10.32,3.61 30.2,-36.62 60.24,-73.23 90.44,-109.69 -1.41,-3.91 -2.66,-7.66 -4.69,-11.58 -2.04,-3.91 -4.7,-7.66 -8.3,-11.58 -3.6,-3.91 -8.13,-7.66 -12.98,-10.95 -4.85,-3.13 -9.86,-5.79 -15.02,-7.66 -5.17,-2.04 -10.33,-3.61 -16.9,-5.01 -6.42,-1.41 -14.23,-2.82 -25.04,-3.29 -10.8,-0.47 -24.87,-0.16 -37.39,0.94 -12.52,1.09 -23.79,2.98 -34.73,4.54 -10.96,1.56 -21.6,2.97 -32.08,3.91 -10.49,0.94 -21.12,1.72 -31.61,1.88 -10.48,0.16 -20.97,0 -29.1,-0.78 -8.14,-0.79 -13.77,-2.04 -24.41,-2.66 -10.79,-0.63 -26.6,-0.63 -42.4,-0.63l-0.16 -0.16z"/>
  <path class="fil0" d="M2594.72 246.89c0,6.88 6.41,19.25 3.6,20.03 -14.71,-1.26 -21.91,-15.34 -21.91,-30.98 0,-29.73 54.93,-40.06 63.84,-1.88 -6.57,-3.29 -19.72,-7.36 -27.39,-7.36 -8.76,0 -18.29,11.43 -18.29,20.03l0.15 0.16zm204.49 23.78l0 0zm-240.01 662.79l0 0c-0.94,-6.42 -2.19,-14.4 -3.29,-22.54 6.89,-0.46 13.78,-0.93 20.65,-1.4l0.64 0c11.25,-0.79 30.19,-3.6 61.8,-20.19 19.24,-10.17 46,-37.24 58.36,-54.76 19.71,-28.16 30.2,-63.37 30.2,-99.51l0 -1.72c0,-9.39 -0.94,-18.62 -2.35,-27.54 -0.16,-0.62 -0.16,-1.41 -0.32,-2.04l-0.15 -0.46c-2.81,-16.43 -7.98,-32.7 -15.65,-48.35 -22.06,-45.53 -64.46,-77.45 -112.5,-90.28 -9.85,-2.66 -20.03,-4.54 -30.35,-5.47l-1.72 -0.16 -1.57 -0.16c-28.78,-2.19 -58.36,2.5 -85.9,15.02 -2.65,1.25 -5.16,2.35 -7.5,3.6 -21.12,10.64 -39.75,25.5 -54.93,43.18l-0.31 0.47 -2.96 -1.41c-54.77,-26.28 -135.5,-178.68 -154.6,-247.99 -23.62,-85.75 -38.64,-231.57 -19.39,-320.44 2.96,-13.77 6.72,-33.17 8.14,-39.9 -55.56,-35.2 -132.06,12.67 -140.67,121.42 -13.93,175.24 93.56,358.46 218.89,467.36 18.15,15.8 32.08,25.97 42.1,33.79l26.9 19.56c-3.91,7.51 -7.35,15.49 -10.16,23.63 -19.25,-11.42 -36.3,-22.22 -57.27,-38.03 -18.31,-13.6 -35.06,-26.44 -52.11,-40.83 -37.71,-32.23 -57.42,-54.45 -91.68,-94.19 -42.4,-49.13 -115.16,-171.8 -118.92,-256.76 -82.29,-10.96 -133.46,144.57 20.65,286.48 99.83,92.01 165.39,119.7 291.97,172.74 -1.09,6.42 -1.73,12.83 -2.04,19.4l-0.16 1.73c-20.34,1.72 -96.22,-22.53 -117.81,-30.36 -198.24,-71.97 -244.4,-158.03 -267.4,-182.28 -32.38,23 -37.71,89.34 -9.07,127.68 48.5,64.93 153.8,102.32 235.95,111.55 51,5.8 90.28,8.3 141.44,6.1l18.78 -1.71c1.25,8.76 3.13,17.36 5.47,25.66l-2.82 0.62 -3.43 0.78 -0.16 0c-107.8,22.07 -193.24,17.37 -296.34,-15.65 -29.42,-9.38 -67.44,-31.91 -72.29,-34.57 -9.24,7.66 -26.76,138.94 152.08,140.35 44.91,0.31 89.97,-8.45 128.61,-20.81 36.46,-11.74 69.63,-25.98 106.56,-40.21 3.6,6.88 7.51,13.45 12.04,19.87l-5.16 4.69c-1.1,1.25 -2.5,2.34 -3.91,3.6 -24.72,21.12 -85.59,46.94 -117.03,57.11 -70.41,22.69 -101.39,19.09 -171.34,10.95 8.45,92.94 112.66,81.68 171.81,58.37 59.92,-23.63 99.67,-68.39 143.78,-112.51 5.02,5.17 10.33,10.02 15.96,14.56 -3.76,8.45 -7.98,15.49 -12.83,22.68 -25.66,37.4 -89.33,85.9 -127.05,103.11 -38.8,17.68 -61.01,18.78 -66.81,19.87 3.6,24.26 28.95,37.4 58.67,37.24 89.19,-0.78 147.09,-114.84 163.36,-147.7l9.23 -18.46c5.95,3.44 12.2,6.41 18.62,9.07l-6.73 22.22c-0.31,0.94 -0.62,2.03 -0.94,3.13l0 0.16c-3.91,12.2 -11.26,28.32 -23.47,48.82 -45.38,76.35 -86.52,87.93 -91.22,90.27 10.34,18.15 41.93,23 65.72,13.3 58.05,-23.46 66.81,-109.21 76.98,-157.4l2.5 -12.99c6.26,1.72 12.52,2.98 19.09,3.91l0.16 0.79c10.63,100.29 -34.26,148.64 -37.08,153.33 30.82,5.32 57.58,-0.31 71.81,-23.78 13.77,-22.69 7.2,-61.02 3.76,-88.72 31.29,-1.09 67.74,-11.73 91.53,-19.55 75.57,-25.19 125.64,-89.5 146.45,-164.6 2.03,-7.2 5.16,-14.55 6.88,-22.22 12.05,0 25.5,-1.25 25.5,-16.43 0,-3.29 -2.96,-13.15 -4.53,-15.65 -4.7,-7.51 -24.72,-20.18 -24.72,-40.99 0,-4.54 2.66,-12.05 3.6,-16.43 9.86,-0.78 23.78,-10.95 23.78,-21.91 0,-16.42 -27.85,-25.03 -38.02,-35.04 -10.02,-10.02 -22.38,-35.21 -22.38,-50.7 0,-9.39 -4.69,-32.86 9.08,-32.86 14.55,0 73.07,29.89 73.07,-60.24 -22.84,10.96 -39.43,18.31 -62.43,0.32 -26.91,-20.97 -4.54,-93.41 46,-93.41 10.95,0 18.78,2.34 24.25,8.61 4.85,5.47 8.29,16.74 8.61,26.12 10.17,-6.72 17.52,-15.64 25.03,-25.97 4.54,-6.26 13.3,-30.04 13.3,-39.74 0,-6.73 -3.44,-9.08 -2.97,-14.4 0.78,-8.6 12.68,-20.02 -2.35,-29.57 -11.89,-7.51 -35.36,6.42 -75.57,-13.77 -5.32,-2.66 -11.11,-6.72 -15.8,-7.98 0.15,-10.17 3.59,-11.73 3.59,-21.9 0,-15.96 -49.75,-35.99 -66.8,-46.47 -11.9,-7.36 -22.85,-14.87 -32.24,-24.25 -13.14,-13.3 -19.56,-24.1 -21.27,-31.14 -2.67,-1.25 -5.17,-2.19 -9.23,-2.19 -15.03,0 -26.3,11.42 -29.26,23.79 -3.29,-3.45 -5.8,-5.95 -10.49,-9.09 -4.69,-3.28 -9.85,-5.94 -14.55,-7.98 -33.65,-14.39 -56.02,-15.17 -91.85,-34.1 -13.3,8.92 -24.41,23.31 -20.02,41.93 -16.91,-8.92 -32.07,-7.36 -50.23,-4.69 -10.95,1.56 -45.85,6.42 -54.76,5.79 -8.76,0 -20.97,-1.57 -28.17,-2.98 -0.78,10.17 -5.47,18.47 -5.47,30.98 0,12.36 3.76,20.18 5.47,23.79 -20.65,0 -30.97,0.15 -47.56,3.44 -17.21,3.44 -29.88,4.38 -47.26,3.75 -5.16,21.91 -5.94,32.86 5.8,54.45 4.22,7.83 13.77,21.91 17.83,25.98 -9.07,3.12 -25.5,6.26 -34.73,7.35 0,25.82 11.1,62.27 17.83,86.21 19.88,71.04 54.92,130.34 99.05,187.6 4.38,5.64 8.45,10.33 12.83,14.56 4.53,-4.38 7.82,-7.2 12.83,-10.96 41.3,-32.07 80.58,-45.69 136.9,-45.69 26.76,0 59.62,9.55 77.92,18.78 24.73,12.52 39.11,22.37 57.58,41 26.28,26.28 42.56,57.73 51.79,94.34 18.94,74.32 -7.5,162.72 -69.78,207.63 -10.95,7.82 -20.96,13.61 -33.32,19.87 -19.72,9.86 -55.24,19.09 -83.25,20.03l-0.78 -0.31zm240.01 -662.79c-2.34,10.33 -11.73,23.94 -16.43,32.86 -2.96,-2.19 -7.82,-8.6 -11.41,-12.36 -4.7,-4.85 -7.35,-9.23 -10.49,-15.02 8.14,0 14.55,-0.47 20.34,-1.57 8.3,-1.4 10.96,-3.44 17.99,-3.91z"/>
 </g>
</svg>
