<svg version="1.1" id="logo" xmlns="http://www.w3.org/2000/svg" xmlns:xlink="http://www.w3.org/1999/xlink" x="0px" y="0px" viewBox="0 0 426 57" style="enable-background:new 0 0 426 57;" xml:space="preserve">
 <style type="text/css">
  .st0{fill:#D0A175;}
	.st1{fill-rule:evenodd;clip-rule:evenodd;fill:#D0A175;}
 </style>
 <g>
  <path id="Path_143" class="st0" d="M102,25.7c-11.2,0-14.7-4.2-12.2-13L93.4,0h9.6l-3.6,12.7c-0.8,2.7-0.5,5.1,5.1,5.1
		s7.3-2.4,8-5.1L116.2,0h9.6l-3.9,12.7C119.2,21.5,113.1,25.7,102,25.7z">
  </path>
  <path id="Path_144" class="st0" d="M156.4,10.2c-1.8,5.6-6.9,9.5-12.8,9.6h-10.6l-1.8,5.8h-9.3l7.7-25.3h20.2
		C155.6,0.4,158.3,4.5,156.4,10.2z M147,10.2c0.5-1.7-0.6-1.7-1.6-1.7h-8.7l-1.1,3.5h8.7C145.5,12.1,146.7,11.4,147,10.2L147,10.2z">
  </path>
  <path id="Path_145" class="st0" d="M170.3,7.7l-0.8,2.4H187l-2.1,6.2h-17.5l-0.8,2.4h17.5l-2.4,7.1h-26.9l8.2-25.3h27.2l-2.5,7.3
		H170.3z">
  </path>
  <path id="Path_146" class="st0" d="M213.8,18.5l1.9,7.2h-11.2l-1.4-5.8h-5.5l-2,5.8h-9.4l8.6-25.3h20.2c5.8,0,8.4,4.1,6.3,9.8
		C219.9,13.8,217.2,16.8,213.8,18.5z M200.3,11.9h8.7c1.2,0.2,2.4-0.5,2.7-1.7c0.6-1.7-0.5-1.7-1.5-1.7h-8.7L200.3,11.9z">
  </path>
  <path id="Path_147" class="st0" d="M256.8,21.1h-10.9l-3.5,4.6h-10.5L252.2,0h14.3l0.8,25.7h-10.5L256.8,21.1z M256.8,14.6V6.7
		l-6,7.9L256.8,14.6z">
  </path>
  <path id="Path_148" class="st0" d="M280.1,25.7h-9.6l10-25.7h9.6L280.1,25.7z">
  </path>
  <path id="Path_149" class="st0" d="M312.4,18.4l1.5,7.3h-11.3l-1.1-5.9h-5.6l-2.4,5.9h-9.6L294.1,0h20.5c5.9,0,8.3,4.2,5.8,9.9
		C318.9,13.7,316,16.7,312.4,18.4z M299.1,11.7h8.9c1.3,0.2,2.5-0.5,2.9-1.7c0.8-1.7-0.5-1.7-1.4-1.7h-8.9L299.1,11.7z">
  </path>
  <path id="Path_150" class="st0" d="M375.3,7.4l-0.8,2.4h17.5l-2.1,6.2h-17.5l-0.8,2.4h17.5l-2.4,7.1H360l8.2-25.2h27.1l-2.4,7.2
		H375.3z">
  </path>
  <path id="Path_151" class="st0" d="M408.2,25.4h-9.6l9.8-25.2h9.6L408.2,25.4z">
  </path>
  <path id="Path_152" class="st0" d="M426,0.2h-26.4l-2.4,7.2h25.9L426,0.2z">
  </path>
  <path id="Path_153" class="st0" d="M349.8,12.4c-0.8,2.7-2.5,5.1-8,5.1h-0.2l-2.9,7.7h0.5c11.3,0,17.4-3.9,20.1-12.7l3.8-12.2h-9.6
		L349.8,12.4z">
  </path>
  <path id="Path_154" class="st0" d="M341.6,17.5h-1.9l-2.9,7.7h1.9L341.6,17.5z">
  </path>
  <path id="Path_155" class="st1" d="M20.7,37.2v-0.7h17.5l0.7-8.8h4.2l2.3,8.8h9.9c0.6,0,1.3,0.1,1.9,0.3c0.4,0.1,0.7,0.4,1,0.7
		c0.3,0.4,0.5,0.9,0.5,1.3c0,0.5-0.1,1-0.4,1.3c-0.3,0.3-0.6,0.6-1,0.7c-0.6,0.2-1.3,0.3-2,0.3H44.1l-7.6,8.2h-4.4l4.5-8.2H17
		c-4.2-0.3-8.4,1.4-11.2,4.5C3.2,49,1.2,52.8,0,56.9L61.4,57l0,0c3.9,0.2,7.7-1.4,10.2-4.4c2.6-3.4,4.5-7.2,5.4-11.3l0,0l2.4-8.2
		l0,0c1-3.2-0.2-6.7-2.9-8.8c-2.9-2.2-6.4-3.5-10-3.6h-30c-0.8,0-1.5-0.1-2.3-0.3c-0.4-0.1-0.7-0.4-1-0.7c-0.3-0.4-0.4-0.8-0.4-1.3
		c0-0.5,0.1-0.9,0.4-1.3c0.2-0.3,0.6-0.6,0.9-0.8c0.7-0.3,1.5-0.4,2.3-0.4h34.3c4.2,0.3,8.3-1.3,11.2-4.5c2.6-3.4,4.5-7.2,5.7-11.3
		H38c-10.7,0-20.2,6.7-23.8,16.7l0,0l-1.1,3.3c-1.5,3.6-1.6,7.6-0.3,11.3c0.6,1.5,1.6,2.7,2.9,3.6c1.5,1,3.3,1.4,5.1,1.4
		c0,0,0,0,0,0S20.7,36.8,20.7,37.2z">
  </path>
 </g>
</svg>