<svg xmlns="http://www.w3.org/2000/svg" height="800" width="1200" id="svg12385" version="1.1" xml:space="preserve" clip-rule="evenodd" fill-rule="evenodd" image-rendering="optimizeQuality" shape-rendering="geometricPrecision" text-rendering="geometricPrecision" viewBox="-527.0364 -635.56775 4567.6488 3813.4065"><defs id="defs12366"><style id="style12364" type="text/css">.fil0{fill:#ec2028}</style></defs><g transform="translate(.576 -.498)" id="Layer_x0020_1"><g id="_166868888"><path id="path12369" d="M187 1749c7-15 14-24 19-44 1-2-2-1-3-1-37 4-114 96-132 116-17 19-46 42-55 71-6 17-23 89-14 106 12 25 71-14 85-22 27-16 52-27 83-40 34-15 154-72 190-43 14 23-50 81-68 100-36 38-78 94-112 138-45 57-72 98-20 169 35 48 73 28 112 1 35-24 60-53 87-79 23-22 56-62 79-88l81-86c-11 59-76 162-41 224 45 79 121 64 185 12 96-78 194-210 245-323 13-29 31-72 38-104 27-115-49-154-96-32-14 36 4 36-4 58-19 54-109 178-141 214-15 17-138 144-158 120-17-41 117-247 138-279 14-22 78-112 83-127 9-29-24-119-97-33l-123 141c-45 54-253 275-295 278-5-17 15-38 23-47 46-58 117-141 155-197 57-85 91-108 64-199-5-18-14-35-24-46-12-13-35-14-58-14-110 1-179 46-227 56z" class="fil0"/><path id="path12371" d="M1924 2175c21-19 107-109 121-118l9 62c9 55-43 105-71 108-10-11-15-21-25-32-11-12-13-11-25-16l-9-5zm-141 74c4-15 59-118 74-146 24-44-15-95-48-59-25 26-83 98-102 116-20 19-53 45-89 56-67 20-36-56-15-74 27-23 145-85 182-108 15-9 36-17 36-38-1-23-27-25-49-24-43 3-115 43-150 67-16 11-27 21-40 32-44 36-30 43-70 75-21 17-61 52-81 65-56 37-59-15-30-52 22-27 43-53 66-79 12-14 25-22 19-51-4-18-12-39-19-52h-1c-45-1-187 122-222 158-29 29-44 61-66 55-2-23 53-74 73-99 6-7 11-11 17-18 8-10 24-29 16-47-6-12-63-20-89 7-18 18-36 39-50 63-7 12-13 24-19 37-10 23-6 20-23 34-23 18-39 32-64 49-50 32-108 29-107-22 0-18 14-22 25-31 174-145 84-180 27-148-65 37-127 127-124 214 2 69 43 122 117 91 58-25 89-64 124-101 2 24 0 39 10 60 21 43 52 39 80 8 10-11 21-23 31-36 25-31 98-123 135-138-8 22-42 59-61 104-8 19-17 43-10 67 7 23 13 42 36 45 37 5 90-37 110-54 21-18 71-70 83-78 9 79 27 130 113 88 57-28 116-94 127-99-4 15-18 38-26 53-30 58-22 58-61 90-214 175-171 256-85 192 70-53 104-112 149-179 7-10 75-61 90-72 12-9 34-29 46-35 9 9 16 46 73 75 34 18 76 24 117 9 49-18 139-87 170-125l-7-34c-26 10-106 110-183 91 9-11 48-31 72-63 59-77 37-122 22-214-7-42-64-24-78 7s5 16-23 44c-52 52-117 117-171 165-13 12-22 20-35 32-6 6-10 8-18 15-9 8-11 10-20 14z" class="fil0"/><path id="path12373" d="M1131 1928c27-77-81-65-98 3-8 32 13 60 46 48 25-9 43-25 53-51z" class="fil0"/><path id="path12375" d="M2674 2019c10-14 104-97 119-112 19-18 104-99 121-109l-117 212-124 8zm232-9c12-34 35-77 51-112 17-38 34-75 52-113 8-19 20-43 8-66-22-40-69-3-84 8-42 30-124 97-157 128-41 40-96 84-129 119-7 8-13 12-21 19-28 25-21 28-53 30-14 1-27 2-40 2-25-1-51-3-76-7l14-44c-25 8-96 69-116 93-9 11-21 29-19 48 11 26 95 6 154 12-2 6-58 73-63 76-11 7-18 7-46 27-33 23-92 77-93 119 0 23 28 24 46 17 28-11 53-47 74-69 39-39 106-116 139-146 21-20 10-23 47-23h140l-42 105c-16 41-17 97 37 94 37-2 79-30 102-46 14-10 30-23 42-34l36-36-14-24c-11 8-23 17-34 27-46 37-55 17-45-5l37-84 94-3c8-9 21-42 29-56s28-42 32-53c-40-10-62 0-101-4z" class="fil0"/><path id="path12377" d="M3298 2035c1-10 9-27-1-34-20-13-59 31-70 44-16 18-51 77-26 94 3 2 4 2 7 4 4 3 2 1 5 3-21 34-49 56-83 78-26 17-96 35-89-43 25-15 113-102 117-145 5-49-73-54-144 54-24 37-42 73-43 129-1 53 16 106 63 112 44 6 93-38 114-56l98-117c8-11 8-18 22-21 19-6 50-13 70-16-3 8-27 39-35 52-52 85-36 161 34 153 66-8 115-57 152-101l24-29-6-27c-21 16-69 70-100 74-32 4-31-28-21-49 11-26 17-32 34-50 38-41 52-43 45-85-2-15-5-22-16-27-41-19-105 1-149 5z" class="fil0"/><path id="path12379" d="M3228 1931c28-81-70-68-92-5-10 31 8 64 39 56 23-6 45-30 52-51z" class="fil0"/><path id="path12381" d="M1370 594c-31 12-66-106-74-138-10-40-13-67-13-92 0-32 2-67 7-106-76-5-113 35-140 81-62 102 0 244 53 336 14 24 27 45 43 67 5 8 67 91 18 71-17-7-31-20-45-31-25-19-49-40-70-64-21-25-46-66-61-107-42 10-67 77-73 115-19 117 118 211 205 261 9 5 20 12 28 18 5 3 9 7 13 11 2 2 4 4 5 6 1 4 1 6-1 9-15 12-75-7-94-14-13-5-25-10-31-12-36-14-74-39-96-60-28 29-25 91-11 130 27 76 129 104 203 123 31 8 129 18 129 35-1 28-156 15-193 6-19-5-46-16-59-21-7 92 35 126 114 141 36 6 82 10 119 6 29-3 106-20 112-9 10 19-77 41-100 45-55 10-98 4-138-1 7 29 36 62 53 75 41 30 89 30 137 19 70-16 157-64 166-53 11 15-60 58-84 69-43 21-72 26-126 27 10 61 119 93 189 65 39-15 89-57 118-86 22-21 35-36 38-32 9 18-34 79-52 98-18 18-28 28-41 37-12 8-29 17-52 24 18 23 67 31 111 29 24-1 43-9 60-19 47-26 69-80 89-134 1-1 3-4 5-4 3 0 5 3 5 4 21 54 42 108 89 134 17 10 36 18 60 19 44 2 94-6 111-29-22-7-40-16-52-24-13-9-23-19-41-37-19-19-61-80-52-98 2-4 16 11 38 32 29 29 79 71 118 86 70 27 178-4 189-65-54 0-84-6-126-27-24-12-95-55-84-69 9-11 96 37 166 53 47 11 96 11 137-19 16-12 46-45 53-75-40 5-83 11-138 1-23-4-110-26-100-45 6-12 82 5 112 9 38 4 83 1 119-6 79-14 121-49 114-141-13 5-40 16-59 21-37 10-192 23-193-6 0-16 98-27 129-35 74-19 175-47 202-123 14-39 17-102-11-130-22 22-61 46-96 60-6 2-18 7-31 12-18 7-78 25-94 14-2-2-2-5-1-9 1-2 3-4 5-6 4-4 8-7 13-11 8-6 19-12 28-18 88-50 224-144 205-261-6-38-31-105-73-115-16 41-40 82-61 107-21 24-45 44-70 64-14 11-28 24-45 31-49 20 12-64 18-71 15-23 29-44 43-67 54-92 115-235 53-336-27-45-64-85-140-81 5 39 7 74 7 106 0 25-3 52-13 92-8 32-43 150-74 138-15-6-1-69 3-99 14-104 19-222-8-321-25-92-77-181-178-173-26 2-70 15-87 29l24 44c72 142 107 340 37 487-15 32-35 51-54 81-47 77 1 145 45 182 54 46 80 77 107 163 62 201-121 433-344 432h-10c-223 1-406-232-344-432 27-86 53-116 107-163 43-37 92-105 45-182-18-30-39-49-54-81-70-147-35-345 37-487l24-44c-17-14-61-27-87-29-101-8-153 81-178 173-27 100-22 217-8 321 4 29 18 92 3 99zm460 862h-7c-89-1-175-30-254-85-55-38-111-96-146-163-80-152-62-351 37-487 38-53 44-26 23-111-8-30-24-102-11-132 12 53 33 100 55 146 23 47 29 61 22 73-14 14-20 16-49 51-54 71-85 155-91 240-5 74 7 149 41 217 22 45 55 88 95 125 58 54 161 116 277 117h16c116-1 219-63 277-117 40-38 72-80 95-125 34-68 46-144 41-217-6-85-36-168-91-240-29-35-35-37-49-51-7-12-1-26 22-73 22-46 43-93 55-146 13 30-3 102-11 132-21 84-16 58 23 111 98 136 117 335 37 487-35 67-91 125-146 163-78 55-165 84-254 85h-2z" class="fil0"/></g></g></svg>