<svg version="1.1" id="Layer_1" xmlns="http://www.w3.org/2000/svg" xmlns:xlink="http://www.w3.org/1999/xlink" x="0px" y="0px" viewBox="0 0 172.6 50.8" style="enable-background:new 0 0 172.6 50.8;" xml:space="preserve">
 <style type="text/css">
  .st0{fill:#008644;}
	.st1{fill:#EBE21B;}
	.st2{fill:#50B848;}
	.st3{fill:#6F7172;}
 </style>
 <g>
  <path class="st0" d="M25.3,3.3c0.1-0.7,0.1-1.2-1-1.5c-1.1-0.3-3.7-0.7-7.6-0.7c-4.9,0-12.6,1.7-15.2,13.6
		c-2.6,11.9-1.9,16,3.2,19.4c5.1,3.5,13.6,1.4,14,1.2c0.4-0.2,0.8-0.4,1-1.1c0.2-0.7,1.1-5.4,1.1-5.9c0.1-0.5-0.2-0.9-0.9-0.9
		c-0.7,0.1-3.6,0.4-6.3,0.4c-2.7,0-4.3-1.2-4.1-3.8c0.2-2.6,0.8-6.1,1.2-8.1c0.4-2,1.9-6.6,4.9-6.7c3-0.1,6.3,0.3,6.9,0.4
		c0.6,0.1,1.4,0,1.5-0.7C24.3,8.4,25.2,3.8,25.3,3.3">
  </path>
  <path class="st0" d="M39.5,9.8c0.1-0.5-0.3-0.9-0.7-0.9h-7.2c-0.5,0-1,0.4-1.1,0.9l-4.4,24.9c-0.1,0.5,0.3,0.9,0.7,0.9H34
		c0.5,0,1-0.4,1.1-0.9L39.5,9.8z">
  </path>
  <path class="st0" d="M31.2,5.5C31.1,6,31.4,6.4,32,6.4h7.2c0.5,0,1-0.4,1.1-0.9L41,0.9C41.1,0.4,40.8,0,40.3,0h-7.2
		c-0.5,0-1,0.4-1.1,0.9L31.2,5.5z">
  </path>
  <path class="st0" d="M77.2,9.8c0.1-0.5-0.2-0.9-0.7-0.9h-7.2c-0.5,0-1,0.4-1.1,0.9l-4.4,24.9c-0.1,0.5,0.3,0.9,0.7,0.9h7.2
		c0.5,0,1-0.4,1.1-0.9L77.2,9.8z">
  </path>
  <path class="st0" d="M94.8,1c0.1-0.6-0.3-1-0.9-1H87c-0.6,0-1.1,0.5-1.2,1l-5.9,33.6c-0.1,0.6,0.3,1,0.9,1h6.9c0.6,0,1.1-0.5,1.2-1
		L94.8,1z">
  </path>
  <path class="st0" d="M61.5,8.9h-6l0.9-5c0.1-0.6,0-1.2-0.7-1.1l-7.1,1.1C48,4.2,47.5,4.4,47.4,5c0,0-4.1,23.1-4.1,23.3
		c-0.6,3.6,0.4,7.9,7.4,7.9c3.9,0,6.2-0.5,6.2-0.5c0.5,0,1-0.4,1-0.9l0.8-4.3c0.1-0.5-0.2-0.9-0.7-0.9h-4.4c-0.5,0-1.5,0-1.3-1.1
		c0.1-0.8,2.2-12.9,2.2-12.9h6.1c0.5,0,1-0.4,1.1-0.9l0.7-4.8C62.4,9.3,62.1,8.9,61.5,8.9">
  </path>
  <path class="st0" d="M68.9,5.5c-0.1,0.5,0.2,0.9,0.8,0.9h7.2c0.5,0,1-0.4,1.1-0.9l0.8-4.6C78.9,0.4,78.5,0,78,0h-7.2
		c-0.5,0-1,0.4-1.1,0.9L68.9,5.5z">
  </path>
  <path class="st0" d="M109.4,9.8c0.1-0.5-0.3-0.9-0.8-0.9h-7.2c-0.5,0-1,0.4-1.1,0.9L96,34.8c-0.1,0.5,0.3,0.9,0.8,0.9h7.2
		c0.5,0,1-0.4,1.1-0.9L109.4,9.8z">
  </path>
  <path class="st0" d="M101.1,5.5c-0.1,0.5,0.3,0.9,0.8,0.9h7.2c0.5,0,1-0.4,1.1-0.9l0.8-4.6c0.1-0.5-0.2-0.9-0.7-0.9H103
		c-0.5,0-1,0.4-1.1,0.9L101.1,5.5z">
  </path>
  <path class="st0" d="M139.3,16.8c0.1-3.7-2.2-8.2-8.7-8.2h-5.1c-1.5,0-8.8,0.2-10.4,9.3c-1.5,9-2.9,17-2.9,17
		c-0.1,0.4,0.2,0.8,0.6,0.8h7.2c0.4,0,0.8-0.4,0.9-0.8l2.9-16.3c0.4-2.3,1.4-2.9,2.4-2.9h2.8c0.8,0,1.7,0.7,1.3,2.4
		c-0.4,2.1-3,16.8-3,16.8c-0.1,0.4,0.2,0.8,0.6,0.8h7.2c0.4,0,0.8-0.4,0.9-0.8C136.2,34.9,139.3,16.9,139.3,16.8">
  </path>
  <path class="st0" d="M153.8,24.4l-0.1,0.8l0.3-0.4C153.9,24.7,153.8,24.5,153.8,24.4">
  </path>
  <path class="st0" d="M171.8,8.9h-8.4c-0.6,0-0.8,0.2-1.2,0.8c-0.3,0.4-5.2,6.7-7.4,9.5l3.2-18.1c0-0.2,0-0.4-0.1-0.6l-14.5,32.4
		l-0.3,1.7c-0.1,0.6,0.3,1.1,0.9,1.1h2.1l7.7-10.5l0.1-0.8c0,0.1,0.1,0.3,0.2,0.4l6.7-9.1l-4,16.3c0.5,1.3,0.9,2.3,0.9,2.5
		c0.2,0.7,0.4,1.2,1.3,1.2h8.3c0.7,0,0.8-0.6,0.4-1.2c-0.3-0.6-5.8-12.7-5.8-12.7s10.1-11.6,10.6-12.1
		C172.9,9.2,172.5,8.9,171.8,8.9">
  </path>
  <path class="st1" d="M152,34.6l1.7-9.4L146,35.7h4.7C151.3,35.7,151.9,35.2,152,34.6">
  </path>
  <path class="st1" d="M153.9,24.8c0.7,2,1.9,5,2.7,7.2l4-16.3L153.9,24.8z">
  </path>
  <path class="st2" d="M157,0h-6.8h-0.1c-0.6,0-1.1,0.5-1.2,1.1l-0.1,0.7l-5.5,31.1l14.5-32.4C157.7,0.2,157.4,0,157,0">
  </path>
  <path class="st3" d="M63.8,45.6c0-1.6,0.7-2.8,2.2-2.9c0.7,0,1,0.1,1.5,0.3l-0.2-0.7c-0.4-0.1-0.9-0.2-1.4-0.2
		c-2.2,0-3.3,1.9-3.3,3.3c0,1.8,0.7,3.8,3.1,3.8c0.8,0,1.4-0.1,2-0.3l0-3.5h-2.1l-0.1,0.5l1.1,0l0,2.7c-0.3,0.1-0.6,0.1-1,0.1
		C64.1,48.5,63.8,46.7,63.8,45.6">
  </path>
  <path class="st3" d="M110,44c0.1,0.1,0.3,0.2,0.3,0.4l0,4.7l1,0v-3.5c0-0.6,0.5-1,1.1-1c0.6,0,1,0.4,0.9,0.9l0,3.1
		c0,0.3,0.1,0.5,0.3,0.5h0.7v-3.5c0-1-0.6-1.7-1.6-1.7c-0.6,0-1.1,0.4-1.4,0.7c0-0.4,0-0.7-0.4-0.7H110z">
  </path>
  <path class="st3" d="M109.6,46.4c0-0.9-0.3-1.6-0.7-1.9c-0.5-0.4-1-0.5-1.5-0.5c-1.5,0-2.1,1.2-2.2,2.4c0,0.8,0.2,1.8,0.7,2.3
		c0.3,0.3,0.8,0.5,1.4,0.5c0.8,0,1.3-0.3,1.7-0.8C109.4,47.9,109.6,47.2,109.6,46.4 M106.2,46.5c0-0.8,0.1-2,1.1-2.1
		c1,0,1.2,0.9,1.2,2c0,0.7-0.1,2.2-1.1,2.2C106.3,48.6,106.3,47.2,106.2,46.5">
  </path>
  <path class="st3" d="M57.2,46.4c0-0.9-0.3-1.6-0.7-1.9c-0.5-0.4-1-0.5-1.5-0.5c-1.5,0-2.1,1.2-2.2,2.4c0,0.8,0.2,1.8,0.8,2.3
		c0.3,0.3,0.8,0.5,1.4,0.5c0.8,0,1.3-0.3,1.7-0.8C57.1,47.9,57.2,47.2,57.2,46.4 M53.9,46.5c0-0.8,0.1-2,1.1-2.1c1,0,1.2,0.9,1.2,2
		c0,0.7-0.1,2.2-1.1,2.2C53.9,48.6,53.9,47.2,53.9,46.5">
  </path>
  <path class="st3" d="M80.5,49l0-5h-1l0,3.8c-0.1,0.4-0.5,0.7-1,0.7c-0.6,0-0.9-0.3-0.9-0.9v-3.3c0-0.1-0.1-0.3-0.4-0.3l-0.9,0
		c0.1,0.2,0.2,0.2,0.2,0.5v3.3c0,0.4,0.5,1.4,1.8,1.4c0.6,0,1.1-0.4,1.3-0.7l0,0.3c0,0.2,0.1,0.3,0.2,0.4L80.5,49z">
  </path>
  <path class="st3" d="M116.9,47.1c1,0,2-0.7,2-1.7v-0.2c-0.1-1.1-1-1.4-1.9-1.4c-1.3,0-2.1,0.9-2.1,2.1v1.2c0,1.4,0.9,1.9,1.9,1.9
		c0.6,0,1.3-0.2,1.8-0.5l0.1-0.6c-0.5,0.3-1,0.5-1.8,0.5c-0.5,0-1-0.3-1-0.9v-0.6H116.9z M116.1,45.5c0-0.7,0.5-1.1,1.1-1.1
		c0.4,0,0.9,0.3,0.9,0.8v0.2c0,0.6-0.4,1.3-1.4,1.2l-0.6,0V45.5z">
  </path>
  <path class="st3" d="M120.6,45.3c0-0.4,0.4-0.8,0.8-0.9c0.6,0,0.7,0.2,1.3,0.3l-0.2-0.6c-0.4-0.2-0.9-0.3-1.3-0.3
		c-0.8,0-1.6,0.6-1.6,1.5c0,1.5,2.4,1.4,2.4,2.4c0,0.5-0.4,0.9-1.1,0.9c-0.5,0-1-0.3-1.4-0.4l0.1,0.6c0.5,0.3,0.9,0.4,1.5,0.4
		c0.9,0,1.9-0.5,1.8-1.6C122.9,46.2,120.6,46.3,120.6,45.3">
  </path>
  <path class="st3" d="M93.1,42.2c0.1,0.1,0.3,0.4,0.3,0.5l0,5.8c0,0.4,0.2,0.5,0.3,0.5h0.8l0-6.4c0-0.2-0.1-0.4-0.4-0.4H93.1z">
  </path>
  <path class="st3" d="M72.9,44c0.1,0.1,0.1,0.1,0.1,0.2c0.1,0.1,0.1,0.1,0.1,0.4v4.5h1.1v-3.3c0-0.6,0.5-1.1,1.1-1.1
		c0.3,0,0.4,0,0.6,0.1L75.9,44c-0.2,0-0.3-0.1-0.6-0.1c-0.5,0-0.8,0.3-1.1,0.6c0-0.3,0-0.5-0.3-0.5H72.9z">
  </path>
  <path class="st3" d="M123.3,44c0.1,0.2,0.3,0.3,0.3,0.5l0,4.2c0,0.3,0.1,0.3,0.3,0.3h0.7v-4.7c0-0.3-0.1-0.4-0.3-0.4L123.3,44z">
  </path>
  <path class="st3" d="M84.1,42.2c0.1,0.2,0.3,0.4,0.3,0.5v1.7c-0.3-0.2-0.6-0.5-1.2-0.5c-1.1,0-2,0.9-2,2.6c0,1,0.3,2.6,2,2.6
		c0.5,0,0.9-0.2,1.3-0.6V49h1v-6.3c0-0.4-0.3-0.5-0.7-0.5L84.1,42.2z M83.5,44.5c0.7,0,0.9,0.6,0.9,1.3v2.3
		c-0.3,0.3-0.5,0.5-1.1,0.5c-0.8,0-1-1.2-1-1.9C82.3,45.7,82.2,44.5,83.5,44.5">
  </path>
  <path class="st3" d="M133.1,45.6c0-1.6,0.7-2.8,2.2-2.9c0.7,0,1,0.1,1.5,0.3l-0.2-0.7c-0.4-0.1-0.9-0.2-1.4-0.2
		c-2.2,0-3.3,1.9-3.3,3.3c0,1.8,0.7,3.8,3.1,3.8c0.8,0,1.4-0.1,2-0.3l0-3.5h-2.1l-0.1,0.5l1.1,0l0,2.7c-0.3,0.1-0.6,0.1-1,0.1
		C133.4,48.5,133.1,46.7,133.1,45.6">
  </path>
  <path class="st3" d="M145.6,46.4c0-0.9-0.3-1.6-0.7-1.9c-0.5-0.4-1-0.5-1.5-0.5c-1.5,0-2.1,1.2-2.2,2.4c0,0.8,0.2,1.8,0.7,2.3
		c0.3,0.3,0.8,0.5,1.4,0.5c0.8,0,1.3-0.3,1.7-0.8C145.4,47.9,145.6,47.2,145.6,46.4 M142.3,46.5c0-0.8,0.1-2,1.1-2.1
		c1,0,1.2,0.9,1.2,2c0,0.7-0.1,2.2-1.1,2.2C142.3,48.6,142.3,47.2,142.3,46.5">
  </path>
  <path class="st3" d="M150.6,49l0-5h-1l0,3.8c-0.1,0.4-0.5,0.7-1,0.7c-0.6,0-0.9-0.3-0.9-0.9v-3.3c0-0.1-0.2-0.3-0.4-0.3l-0.9,0
		c0.1,0.2,0.2,0.2,0.3,0.5v3.3c0,0.4,0.5,1.4,1.8,1.4c0.6,0,1.1-0.4,1.3-0.7l0,0.3c0,0.2,0.1,0.3,0.2,0.4L150.6,49z">
  </path>
  <path class="st3" d="M137.8,44c0.1,0.1,0.1,0.1,0.1,0.2c0.1,0.1,0.1,0.1,0.1,0.4v4.5h1.1v-3.3c0-0.6,0.5-1.1,1.1-1.1
		c0.3,0,0.4,0,0.6,0.1l-0.1-0.7c-0.1,0-0.3-0.1-0.5-0.1c-0.5,0-0.8,0.3-1.1,0.6c0-0.3,0-0.5-0.3-0.5H137.8z">
  </path>
  <path class="st3" d="M152.8,50.8c-0.1-0.2-0.3-0.4-0.3-0.5l0-1.6c0.3,0.2,0.6,0.5,1.2,0.5c1.1,0,2-0.9,2-2.6c0-1.1-0.3-2.6-2-2.6
		c-0.5,0-0.9,0.2-1.3,0.6V44h-1v6.4c0,0.4,0.3,0.5,0.7,0.5L152.8,50.8z M153.4,48.5c-0.7,0-0.9-0.6-0.9-1.3v-2.3
		c0.3-0.3,0.5-0.5,1.1-0.5c0.8,0,1,1.2,1,1.9C154.6,47.3,154.6,48.5,153.4,48.5">
  </path>
  <path class="st3" d="M71.3,45.1l0,0.8c-0.2,0-0.5,0-0.7,0c-1,0-2.2,0.4-2.2,1.7c0,1.2,0.9,1.6,1.8,1.5c0.5,0,1-0.4,1.2-0.7
		c0,0.4,0,0.6,0.4,0.6h0.6l0-3.7c0-0.9-0.9-1.5-2-1.5c-0.6,0-1,0.1-1.5,0.4l-0.1,0.6c0.4-0.2,0.9-0.4,1.3-0.4
		C70.7,44.4,71.3,44.7,71.3,45.1 M69.4,47.5c0-0.6,0.7-1.1,1.2-1.1c0.2,0,0.5,0,0.7,0v1.3c0,0.4-0.7,0.7-1.1,0.7
		C69.8,48.5,69.4,48.1,69.4,47.5">
  </path>
  <path class="st3" d="M89,45.1l0,0.8c-0.2,0-0.5,0-0.7,0c-1,0-2.2,0.4-2.2,1.7c0,1.2,0.9,1.6,1.8,1.5c0.5,0,1-0.4,1.2-0.7
		c0,0.4,0,0.6,0.4,0.6h0.6l0-3.7c0-0.9-0.9-1.5-2-1.5c-0.6,0-1,0.1-1.5,0.4l-0.1,0.6c0.4-0.2,0.9-0.4,1.3-0.4
		C88.4,44.4,89,44.7,89,45.1 M87.1,47.5c0-0.6,0.7-1.1,1.2-1.1c0.2,0,0.5,0,0.7,0v1.3c0,0.4-0.7,0.7-1.1,0.7
		C87.5,48.5,87.1,48.1,87.1,47.5">
  </path>
  <path class="st3" d="M128.1,45.1l0,0.8c-0.2,0-0.5,0-0.7,0c-1,0-2.2,0.4-2.2,1.7c0,1.2,0.9,1.6,1.8,1.5c0.5,0,1-0.4,1.2-0.7
		c0,0.4,0,0.6,0.4,0.6h0.6l0-3.7c0-0.9-0.9-1.5-2-1.5c-0.6,0-1,0.1-1.5,0.4l-0.1,0.6c0.4-0.2,0.9-0.4,1.3-0.4
		C127.5,44.4,128.1,44.7,128.1,45.1 M126.2,47.5c0-0.6,0.7-1.1,1.2-1.1c0.2,0,0.5,0,0.7,0v1.3c0,0.4-0.7,0.7-1.1,0.7
		C126.5,48.5,126.1,48.1,126.2,47.5">
  </path>
  <path class="st3" d="M103.2,42.2c0.1,0.2,0.3,0.4,0.3,0.5l0,1.7c-0.3-0.2-0.6-0.5-1.2-0.5c-1,0-2,0.9-2,2.6c0,1.1,0.3,2.6,2,2.6
		c0.6,0,0.9-0.2,1.3-0.6V49h1v-6.3c0-0.4-0.3-0.5-0.7-0.5L103.2,42.2z M102.5,44.5c0.7,0,0.9,0.6,0.9,1.3v2.3
		c-0.3,0.3-0.5,0.5-1.1,0.5c-0.8,0-1-1.2-1-1.9C101.3,45.7,101.3,44.5,102.5,44.5">
  </path>
  <path class="st3" d="M95.2,44c0.1,0.1,0.3,0.2,0.3,0.4l0,4.7l1,0v-3.5c0-0.6,0.5-1,1.1-1c0.6,0,0.9,0.4,0.9,0.9l0,3.1
		c0,0.3,0.1,0.5,0.3,0.5h0.7v-3.5c0-1-0.6-1.7-1.6-1.7c-0.6,0-1.1,0.4-1.4,0.7c0-0.4,0-0.7-0.4-0.7H95.2z">
  </path>
  <path class="st3" d="M58.7,42.2c0.2-0.3,0.6-0.4,1.2-0.4H60c0.1,0,0.1,0,0.2,0v0.8c-0.1,0-0.2,0-0.2,0h-0.1c-0.3,0-0.4,0.1-0.5,0.2
		c0,0.1-0.1,0.5-0.1,1.1h0.9v0.7h-0.9V49h-0.9v-4.5h-0.7v-0.7h0.7V43C58.5,42.7,58.6,42.4,58.7,42.2">
  </path>
  <path class="st3" d="M26.8,47.1c1,0,2.1-0.7,2-1.7v-0.2c-0.1-1.1-1-1.4-1.9-1.4c-1.3,0-2,0.9-2,2.1l0,1.2c0,1.4,0.9,1.9,1.9,1.9
		c0.6,0,1.3-0.2,1.8-0.5l0.1-0.6c-0.5,0.3-1,0.5-1.8,0.5c-0.5,0-1-0.3-1-0.9v-0.6H26.8z M25.9,45.5c0-0.7,0.5-1.1,1.1-1.1
		c0.4,0,0.9,0.3,0.9,0.8v0.2c0,0.6-0.4,1.3-1.4,1.2l-0.6,0L25.9,45.5z">
  </path>
  <path class="st3" d="M44.9,47.1c1,0,2.1-0.7,2-1.7v-0.2c-0.1-1.1-1-1.4-1.9-1.4c-1.3,0-2,0.9-2,2.1l0,1.2c0,1.4,0.9,1.9,1.9,1.9
		c0.6,0,1.3-0.2,1.8-0.5l0.1-0.6c-0.5,0.3-1,0.5-1.8,0.5c-0.5,0-1-0.3-1-0.9v-0.6H44.9z M44.1,45.5c0-0.7,0.5-1.1,1.1-1.1
		c0.4,0,0.9,0.3,0.9,0.8v0.2c0,0.6-0.4,1.3-1.4,1.2l-0.6,0V45.5z">
  </path>
  <path class="st3" d="M47.8,44c0.1,0.1,0.1,0.1,0.1,0.2c0.1,0.1,0.1,0.1,0.1,0.4v4.5h1.1v-3.3c0-0.6,0.5-1.1,1.1-1.1
		c0.3,0,0.4,0,0.6,0.1L50.7,44c-0.1,0-0.3-0.1-0.6-0.1c-0.5,0-0.8,0.3-1.1,0.6c0-0.3,0-0.5-0.3-0.5H47.8z">
  </path>
  <path class="st3" d="M39.2,42.2l-0.6,0c-0.4,0-0.7,0.1-0.7,0.5V49h1v-0.5c0.4,0.3,0.7,0.6,1.3,0.6c1.6,0,2-1.6,2-2.6
		c0-1.7-1-2.6-2-2.6c-0.6,0-0.9,0.3-1.2,0.5l0-1.7C38.9,42.6,39.1,42.4,39.2,42.2 M39.9,44.5c1.2,0,1.2,1.2,1.2,2.1
		c0,0.7-0.2,1.9-1,1.9c-0.7,0-0.8-0.2-1.1-0.5v-2.3C38.9,45.1,39.2,44.5,39.9,44.5">
  </path>
  <path class="st3" d="M35.2,43.9c-0.6,0-1.1,0.4-1.4,0.7c0,0-0.1,0.1-0.1,0.2c-0.2-0.6-0.7-0.9-1.5-0.9c-0.6,0-1.1,0.4-1.4,0.7
		c0-0.4,0-0.7-0.4-0.7h-0.8c0.1,0.1,0.3,0.2,0.3,0.4l0,4.7l1,0v-3.5c0-0.6,0.5-1,1.1-1c0.6,0,1,0.4,0.9,0.9l0,3.1
		c0,0.3,0.1,0.5,0.3,0.5h0.7v-3.5c0,0,0-0.1,0-0.1c0.1-0.5,0.5-0.9,1.1-0.9c0.6,0,1,0.4,0.9,0.9l0,3.1c0,0.3,0.1,0.5,0.3,0.5h0.7
		v-3.5C36.8,44.5,36.2,43.9,35.2,43.9">
  </path>
  <path class="st3" d="M22.7,41.9l-2,6l-2.1-6h-0.8c0,0,0,0,0,0h-0.8c0.1,0.1,0.3,0.2,0.3,0.4l0,6.8h0.9V43l2.1,6h1l2-6
		c0,0.4,0,0.7,0,1.1c0,0.3,0,0.6,0,0.7V49H24v-7.1H22.7z">
  </path>
 </g>
</svg>