<?xml version="1.0" encoding="UTF-8"?>
<!DOCTYPE svg PUBLIC "-//W3C//DTD SVG 1.1//EN" "http://www.w3.org/Graphics/SVG/1.1/DTD/svg11.dtd">
<!-- Creator: CorelDRAW X5 -->
<svg xmlns="http://www.w3.org/2000/svg" xml:space="preserve" width="210mm" height="118.846mm" style="shape-rendering:geometricPrecision; text-rendering:geometricPrecision; image-rendering:optimizeQuality; fill-rule:evenodd; clip-rule:evenodd"
viewBox="0 0 21000 11885"
 xmlns:xlink="http://www.w3.org/1999/xlink">
 <defs>
  <style type="text/css">
   <![CDATA[
    .fil0 {fill:#178795}
    .fil1 {fill:#222C5A}
    .fil2 {fill:#56514E}
   ]]>
  </style>
 </defs>
 <g id="Layer_x0020_1">
  <metadata id="CorelCorpID_0Corel-Layer"/>
  <path class="fil0" d="M14017 5903l-1093 -802c-108,-29 -1514,-1057 -1764,-1224 -560,-376 -1377,-715 -2127,-897 -1524,-370 -3896,-247 -5803,-246l75 145c802,0 1604,-1 2406,-1 285,0 846,62 1101,102 653,102 1312,244 1911,530 250,119 539,289 770,433 502,314 1007,621 1471,970 478,359 2417,1901 2982,1901 298,0 647,-225 763,-398l-690 -513z"/>
  <path class="fil0" d="M4021 4089l86 138c2604,0 3344,4 5052,996 620,360 1252,789 1807,1217 300,232 1473,1139 1848,1139l73 0c295,0 707,-221 765,-437 -243,-65 -2387,-1714 -2880,-2003 -1037,-609 -2143,-1058 -3788,-1058l-2964 8z"/>
  <path class="fil0" d="M4789 5434l81 178c2066,-1 2724,-26 4017,830 522,346 2363,1902 2908,1902l109 0c244,0 635,-261 729,-401 -1635,-1095 -2920,-2514 -5648,-2514l-2196 4z"/>
  <path class="fil1" d="M1656 5l92 172 2432 5c3222,0 4773,413 6734,1720 845,563 1677,1141 2479,1748 381,288 2133,1634 2557,1634l219 0c194,0 578,-247 619,-401 -125,-33 -2191,-1538 -2451,-1739 -394,-304 -800,-574 -1207,-870 -388,-283 -808,-616 -1236,-841 -2166,-1136 -3659,-1433 -6911,-1433l-3325 5z"/>
  <path class="fil1" d="M12997 4883l1202 874c130,95 411,292 802,292l36 0c278,0 616,-233 729,-401 -674,-452 -1391,-984 -2056,-1479 -635,-473 -1435,-1081 -2099,-1472 -1686,-991 -3102,-1349 -5756,-1349l-3443 15 164 167c2570,0 4357,-109 6246,641 992,394 3407,2044 4175,2711z"/>
  <path class="fil1" d="M15256 2988c-505,-78 -469,-305 -692,-365 0,518 761,892 1103,1156 183,141 1165,884 1338,884l36 0c82,0 605,-244 760,-296 347,-117 777,-124 1136,-85 209,23 300,158 435,208l0 -264c0,-656 -864,-729 -1527,-729 -122,0 -388,146 -586,146 -37,0 -258,-205 -291,-255l986 84c-51,-637 -983,-414 -1679,-449 -364,0 -708,12 -1021,-36z"/>
  <path class="fil2" d="M389 10768c-6,-498 211,-885 698,-902 221,0 320,24 462,79l-65 -206c-130,-35 -281,-75 -443,-74 -707,3 -1032,587 -1040,1031 -11,574 234,1184 968,1188 261,0 429,-21 636,-102l-4 -1107 -666 0 -27 154 353 -2 14 844c-106,25 -200,29 -331,25 -461,-14 -551,-610 -555,-928z"/>
  <path class="fil2" d="M14965 10235c28,36 81,76 82,127l-5 1476 324 4 0 -1097c0,-176 163,-314 339,-314 191,0 301,133 290,278l-5 983c0,90 26,147 105,147l219 0 0 -1093c0,-333 -191,-525 -517,-529 -201,-2 -358,130 -437,230 11,-126 -2,-211 -140,-211l-255 0z"/>
  <path class="fil2" d="M13779 11040c-4,-258 35,-641 338,-651 322,-11 370,283 370,635 0,226 -21,680 -337,684 -364,4 -368,-434 -371,-668zm1050 -38c0,-290 -91,-489 -224,-609 -141,-128 -327,-168 -481,-171 -461,-7 -675,388 -686,767 -8,267 51,558 237,730 104,96 246,152 444,151 249,-1 421,-91 536,-245 115,-153 172,-370 174,-623z"/>
  <path class="fil2" d="M5655 11838l-2 -1587 -323 1 -2 1190c-39,126 -155,231 -319,231 -176,0 -291,-93 -300,-286l2 -1048c-8,-44 -46,-89 -127,-89l-269 2c29,48 73,64 79,145l0 1045c1,141 148,445 554,433 192,0 342,-137 406,-234l-1 87c-1,61 23,108 72,113l231 -4z"/>
  <path class="fil2" d="M16876 10712c0,-226 151,-342 358,-342 112,0 272,81 272,255l0 54c2,199 -130,398 -456,386l-176 -4 2 -348zm274 510c315,4 647,-214 641,-531l0 -53c-16,-339 -310,-432 -599,-432 -398,0 -646,280 -646,678l-2 391c8,441 278,602 604,602 199,0 399,-53 575,-146l25 -199c-160,85 -309,166 -555,166 -165,0 -316,-109 -316,-296l0 -182 274 0z"/>
  <path class="fil2" d="M18297 10660c-8,-137 116,-269 258,-274 190,0 235,52 402,108l-60 -175c-113,-68 -285,-98 -409,-92 -258,11 -510,176 -510,458 0,468 762,443 762,751 2,157 -114,287 -344,287 -167,0 -324,-82 -431,-133l26 176c168,91 291,116 470,117 295,1 587,-169 578,-494 0,-458 -723,-411 -741,-729z"/>
  <path class="fil2" d="M9636 9692c27,46 84,114 84,172l-4 1827c0,125 45,151 99,151l255 0 -3 -2035c4,-49 -45,-116 -125,-115l-306 0z"/>
  <path class="fil2" d="M3258 10247c19,25 29,33 42,57 20,36 30,43 31,119l0 1423 332 -2 0 -1057c-4,-178 164,-356 360,-356 98,0 125,9 199,34l-42 -208c-44,-15 -86,-29 -171,-29 -166,2 -267,84 -358,181 3,-103 4,-163 -106,-163l-286 0z"/>
  <path class="fil2" d="M19149 10251c31,46 87,99 91,151l-8 1331c0,84 21,109 97,109l219 0 0 -1482c0,-84 -25,-113 -109,-113l-289 4z"/>
  <path class="fil2" d="M6588 10413c221,0 291,184 291,401l0 718c-104,98 -147,144 -351,144 -261,0 -323,-389 -323,-592 0,-304 -2,-671 383,-671zm206 -721c29,57 90,130 86,170l0 520c-101,-68 -192,-170 -382,-166 -333,0 -634,284 -638,827 0,333 108,832 621,832 174,8 270,-77 404,-183l0 142 324 0 0 -2004c0,-112 -107,-146 -219,-146l-195 8z"/>
  <path class="fil2" d="M2158 11346c8,-187 211,-338 381,-338 73,-2 152,5 225,16l0 421c-8,129 -207,215 -341,215 -154,0 -272,-130 -264,-314zm601 -737l3 267c-73,-8 -151,-12 -224,-14 -302,4 -707,127 -707,535 10,383 295,492 561,485 159,-4 313,-125 386,-219 4,125 7,183 124,183l182 0 4 -1174c-4,-281 -278,-460 -624,-460 -187,0 -304,32 -463,123l-19 197c130,-69 274,-144 425,-144 164,0 350,71 350,221z"/>
  <path class="fil2" d="M7741 11346c8,-187 211,-338 381,-338 73,-2 152,5 225,16l0 421c-8,129 -207,215 -341,215 -154,0 -272,-130 -264,-314zm601 -737l3 267c-73,-8 -151,-12 -224,-14 -302,4 -707,127 -707,535 10,383 295,492 561,485 159,-4 313,-125 386,-219 4,125 7,183 124,183l182 0 4 -1174c-4,-281 -278,-460 -624,-460 -187,0 -304,32 -463,123l-19 197c130,-69 274,-144 425,-144 164,0 350,71 350,221z"/>
  <path class="fil2" d="M20069 11346c10,-187 211,-338 381,-338 73,-2 152,5 225,16l0 421c-8,129 -207,215 -341,215 -154,0 -275,-132 -264,-314zm601 -737l3 267c-73,-8 -151,-12 -224,-14 -302,4 -707,127 -707,535 10,383 295,492 561,485 159,-4 313,-125 386,-219 4,125 7,183 124,183l182 0 4 -1174c-4,-281 -278,-460 -624,-460 -187,0 -304,32 -463,123l-19 197c130,-69 274,-144 425,-144 164,0 350,71 350,221z"/>
  <path class="fil2" d="M12609 10413c221,0 292,184 292,401l0 718c-104,98 -147,144 -351,144 -261,0 -323,-389 -323,-592 0,-304 -2,-671 383,-671zm206 -721c29,57 90,130 86,170l0 520c-101,-68 -192,-170 -382,-166 -333,0 -634,284 -638,827 0,333 108,832 621,832 174,8 270,-77 404,-183l0 142 324 0 0 -2004c0,-112 -107,-146 -219,-146l-195 8z"/>
  <path class="fil2" d="M10304 10235c28,36 81,76 82,127l-5 1476 324 4 0 -1097c0,-176 163,-314 339,-314 191,0 301,133 290,278l-5 983c0,90 26,147 105,147l219 0 0 -1093c0,-333 -191,-525 -517,-529 -201,-2 -358,130 -437,230 11,-126 -2,-211 -140,-211l-255 0z"/>
 </g>
</svg>
